<?xml version="1.0" encoding="UTF-8"?>
<svg id="_圖層_2" data-name="圖層 2" xmlns="http://www.w3.org/2000/svg" viewBox="0 0 301.81 188.68">
  <defs>
    <style>
      .cls-1 {
        fill: #1a74d6;
        stroke-width: 0px;
      }
    </style>
  </defs>
  <path class="cls-1" d="m151,47.93c-26.08-.04-47.05,21.02-46.84,47.07.2,25.62,20.99,45.93,46.87,45.79,25.96-.14,46.31-20.52,46.28-46.32-.04-25.67-20.75-46.49-46.31-46.54Z"/>
  <path class="cls-1" d="m209.77,14.43c-37.76-18.46-76.07-19.4-114.35-1.71C57.54,30.21,27.33,57.18,1.93,89.93c-2.68,3.45-2.5,5.72.08,9.04,19.79,25.5,42.68,47.63,70.14,64.76,24.02,14.98,49.84,24.58,79.5,24.94,14.34-.3,29.25-2.81,43.55-8.22,43.84-16.59,77.13-46.61,105.4-83.01,2-2.57,1.25-4.4-.44-6.61-24.54-32.1-53.89-58.56-90.4-76.41Zm62.81,82.93c-23.63,26.29-49.97,48.89-83.43,61.93-30.83,12.02-60.77,8.99-89.87-5.57-27.21-13.61-49.7-33.25-69.85-55.78-2.12-2.37-2.58-4.21-.25-6.81,24.07-26.87,51.13-49.63,85.44-62.46,11.66-4.36,23.77-6.38,36.21-6.42,26.17,0,49.02,9.88,70.36,23.97,19,12.55,35.83,27.64,50.87,44.73,1.89,2.14,2.79,3.88.52,6.4Z"/>
</svg>