<?xml version="1.0" encoding="UTF-8"?>
<svg id="_圖層_2" data-name="圖層 2" xmlns="http://www.w3.org/2000/svg" viewBox="0 0 1168.95 188.68">
  <defs>
    <style>
      .cls-1 {
        fill: #1a74d6;
        stroke-width: 0px;
      }
    </style>
  </defs>
  <g>
    <path class="cls-1" d="m151,47.93c-26.08-.04-47.05,21.02-46.84,47.07.2,25.62,20.99,45.93,46.87,45.79,25.96-.14,46.31-20.52,46.28-46.32-.04-25.67-20.75-46.49-46.31-46.54Z"/>
    <path class="cls-1" d="m209.77,14.43c-37.76-18.46-76.07-19.4-114.35-1.71C57.54,30.21,27.33,57.18,1.93,89.93c-2.68,3.45-2.5,5.72.08,9.04,19.79,25.5,42.68,47.63,70.14,64.76,24.02,14.98,49.84,24.58,79.5,24.94,14.34-.3,29.25-2.81,43.55-8.22,43.84-16.59,77.13-46.61,105.4-83.01,2-2.57,1.25-4.4-.44-6.61-24.54-32.1-53.89-58.56-90.4-76.41Zm62.81,82.93c-23.63,26.29-49.97,48.89-83.43,61.93-30.83,12.02-60.77,8.99-89.87-5.57-27.21-13.61-49.7-33.25-69.85-55.78-2.12-2.37-2.58-4.21-.25-6.81,24.07-26.87,51.13-49.63,85.44-62.46,11.66-4.36,23.77-6.38,36.21-6.42,26.17,0,49.02,9.88,70.36,23.97,19,12.55,35.83,27.64,50.87,44.73,1.89,2.14,2.79,3.88.52,6.4Z"/>
  </g>
  <g>
    <path class="cls-1" d="m461.73,131.11v35.45h-101.27V22.11h44.34v109h56.93Z"/>
    <path class="cls-1" d="m593.27,22.11v95.66c0,18.13-5.38,31.17-16.14,39.1-10.76,7.94-24.78,11.91-42.06,11.91-18.2,0-32.82-3.81-43.86-11.43-11.04-7.62-16.56-20.04-16.56-37.25V22.11h45.08v92.81c0,6.91,1.46,11.96,4.38,15.13,2.92,3.17,7.58,4.76,13.99,4.76,5.35,0,9.72-1.15,13.14-3.44,3.41-2.29,5.45-4.88,6.12-7.78.67-2.89,1-8.54,1-16.93V22.11h34.92Z"/>
    <path class="cls-1" d="m740.47,166.56h-36.09l-39.56-63.82c-5.08-8.18-10.2-18.13-15.36-29.83,2.33,9.31,3.49,17.21,3.49,23.71v69.95h-35.98V22.11h41.91l33.66,52.91c6.7,10.51,11.78,19.76,15.24,27.73-2.26-12.35-3.39-24.97-3.39-37.89V22.11h36.09v144.45Z"/>
    <path class="cls-1" d="m809.99,22.11v144.45h-44.34V22.11h44.34Z"/>
    <path class="cls-1" d="m963.76,166.56h-49.16l-21.1-55.24h-13.98v55.24h-44.34V22.11h75.45c16.65,0,29.58,3.9,38.78,11.69,9.21,7.8,13.81,18.08,13.81,30.85,0,8.33-1.69,15.68-5.08,22.06-3.39,6.39-10.23,12.01-20.53,16.88l26.14,62.96Zm-84.24-86.14h18.94c5.57,0,10.05-1.16,13.44-3.49s5.08-5.75,5.08-10.26c0-9.24-5.68-13.86-17.04-13.86h-20.42v27.62Z"/>
    <path class="cls-1" d="m1029.05,22.11v144.45h-44.34V22.11h44.34Z"/>
    <path class="cls-1" d="m1039.31,124.76l41.17-7.41c3.46,11.64,12.35,17.46,26.67,17.46,11.15,0,16.72-2.96,16.72-8.89,0-3.1-1.29-5.52-3.86-7.25-2.58-1.73-7.18-3.26-13.81-4.6-25.33-4.85-41.59-11.2-48.79-19.03-7.19-7.83-10.79-17.04-10.79-27.63,0-13.62,5.17-24.95,15.5-33.98,10.33-9.03,25.2-13.55,44.61-13.55,29.42,0,48.85,11.82,58.31,35.45l-36.72,11.11c-3.81-9.67-11.54-14.5-23.18-14.5-9.67,0-14.5,3-14.5,9,0,2.68,1.09,4.76,3.28,6.24,2.19,1.48,6.42,2.89,12.7,4.23,17.29,3.66,29.56,6.89,36.83,9.7,7.27,2.81,13.33,7.62,18.2,14.44,4.86,6.81,7.3,14.84,7.3,24.09,0,14.61-5.93,26.46-17.78,35.53-11.85,9.07-27.41,13.61-46.67,13.61-35.21,0-56.93-14.67-65.19-44.02Z"/>
  </g>
</svg>