<?xml version="1.0" encoding="UTF-8"?>
<svg id="_圖層_2" data-name="圖層 2" xmlns="http://www.w3.org/2000/svg" viewBox="0 0 256.3 256.12">
  <defs>
    <style>
      .cls-1 {
        fill: #1A74D6;
        stroke-width: 0px;
      }
    </style>
  </defs>
  <path class="cls-1" d="m.2,67.13c0-20.5,0-41,0-61.5,0-6.5.32-6.8,6.33-3.81,27.6,13.75,43.27,36,43.93,66.89.87,41.15.2,82.32.34,123.49.02,5.26-2.77,3.32-4.98,2.29C17.25,181.11,1.58,158.7.38,127.12c-.76-19.97-.14-39.99-.14-59.99-.01,0-.03,0-.04,0Z"/>
  <path class="cls-1" d="m127.93,205.51c19.66,0,39.34-.44,58.99.1,31.46.87,53.8,16.27,67.59,44.34,2.91,5.92,2.75,6.02-3.95,6.02-39.83,0-79.66.44-119.48-.15-31.69-.46-54.71-15.62-68.68-44.19-2.89-5.92-2.66-6.16,4.05-6.16,20.5,0,40.99,0,61.49,0,0,.01,0,.02,0,.04Z"/>
  <path class="cls-1" d="m109.79,68.74c0,20.15.81,40.34-.19,60.44-1.52,30.78-17.56,52.24-45.25,65.28-3.25,1.53-4.75,1.21-4.74-2.94.12-41.96-.21-83.93.24-125.89.29-27.19,20.47-54.92,45.62-64.7,3.86-1.5,4.51-.18,4.49,3.38-.1,21.48-.05,42.96-.05,64.44-.04,0-.09,0-.13,0Z"/>
</svg>