<?xml version="1.0" encoding="utf-8"?>
<svg version="1.1" xmlns="http://www.w3.org/2000/svg" xmlns:xlink="http://www.w3.org/1999/xlink" x="0px" y="0px"
	 viewBox="0 0 256.8 177.4" style="enable-background:new 0 0 256.8 177.4;" xml:space="preserve">
<style type="text/css">
	.st0{fill:#4962AC;}
</style>
<g>
	<path class="st0" d="M22.8,88.7c0,36.4,29.5,65.9,65.9,65.9c5.6,0,11.1-0.7,16.3-2c-3.5-4.2-6.6-8.7-9.3-13.4
		c-2.3,0.3-4.6,0.5-7,0.5c-28.1,0-50.9-22.8-50.9-50.9s22.8-50.9,50.9-50.9c3.6,0,7.1,0.4,10.4,1.1c3-4.5,6.4-8.8,10.2-12.8
		c-6.5-2.1-13.4-3.3-20.6-3.3C52.3,22.8,22.8,52.3,22.8,88.7L22.8,88.7z"/>
	<path class="st0" d="M55.5,88.7c0,18.1,14.5,32.8,32.5,33.2c-2-5.9-3.4-12.1-4.1-18.4c-6.2-2-10.7-7.9-10.7-14.8
		c0-7.2,5-13.3,11.7-15.1c1.2-6.3,3-12.3,5.4-18.1c-0.5,0-1,0-1.6,0C70.4,55.5,55.5,70.4,55.5,88.7L55.5,88.7z"/>
	<path class="st0" d="M106.9,61c-2.5-1.7-5.2-3-8.1-3.9c-2.3,5.3-4.1,11-5.3,16.8c-1.2,5.8-1.8,11.8-1.8,17.9c0,4.1,0.3,8.1,0.8,12
		c0.8,5.9,2.2,11.7,4.2,17.2c3-0.7,5.8-1.8,8.4-3.3c2.9-1.6,5.5-3.6,7.7-6c-1.9-6.3-2.9-13-2.9-19.9c0-8.6,1.6-16.8,4.4-24.3
		C112.1,64.9,109.6,62.7,106.9,61z"/>
	<path class="st0" d="M178.7,13.6c-11.7,0-22.8,2.6-32.8,7.2c-2.6-2.2-5.2-4.2-8.1-6.1c-2.7-1.8-5.5-3.4-8.3-4.9
		C117.2,3.6,103.4,0,88.7,0C39.7,0,0,39.7,0,88.7s39.7,88.7,88.7,88.7c12.5,0,24.5-2.6,35.3-7.3c3-1.3,5.9-2.7,8.7-4.3
		c2.9-1.7,5.8-3.5,8.5-5.5c11.1,6.1,23.9,9.6,37.6,9.6c43.2,0,78.1-35,78.1-78.1S221.8,13.6,178.7,13.6z M178.7,160.7
		c-10.7,0-20.8-2.4-29.8-6.8c3.9-3.6,7.4-7.5,10.6-11.7c-5.3-2-10.3-4.9-14.6-8.4c-3.1,3.9-6.7,7.5-10.6,10.7
		c-1.6-1.3-3.1-2.7-4.5-4.2c-3.5-3.6-6.6-7.5-9.3-11.7c-2.4,1.9-5,3.6-7.7,5c-2.7,1.4-5.5,2.6-8.4,3.6c2.7,4.5,5.8,8.7,9.3,12.5
		c1.5,1.6,3,3.2,4.5,4.7c-2.8,1.2-5.7,2.3-8.6,3.2c-6.6,2-13.6,3.1-20.8,3.1c-39.8,0-72-32.2-72-72s32.2-72,72-72
		c9,0,17.5,1.6,25.5,4.6c-1.7,1.5-3.3,3.1-4.9,4.8c2.9,0.9,5.7,2.1,8.4,3.4c-3.7,3.6-7.1,7.6-10.1,11.9c2.8,1.1,5.6,2.5,8.1,4.1
		c2.6,1.6,5,3.5,7.3,5.5c3-4,6.3-7.8,10.1-11c1.5-1.4,3.2-2.7,4.8-3.9c3.7,3.4,7,7.2,9.8,11.4c4.6-3.2,9.7-5.7,15.2-7.4
		c-2.9-4.4-6.2-8.6-9.8-12.4c7.9-3.1,16.5-4.9,25.6-4.9c38.1,0,68.9,30.9,68.9,68.9S216.8,160.7,178.7,160.7L178.7,160.7z"/>
	<path class="st0" d="M149.7,113.6c-4.6-6.1-7.3-13.6-7.3-21.8c0-9.1,3.3-17.4,8.8-23.7c1.5-1.7,3.1-3.2,4.8-4.6
		c-2.1-5.7-4.9-11-8.4-15.9c-1.7,1.2-3.3,2.4-4.8,3.8c-3.9,3.5-7.3,7.5-10.1,12c-2.6-4.6-6-8.7-9.8-12.2c-3.7,5-6.6,10.5-8.9,16.3
		c4.8,5.8,7.7,13.2,7.7,21.3c0,8.9-3.5,17-9.2,23c1.8,6,4.4,11.7,7.7,16.9c4.1-3.2,7.7-7.1,10.6-11.5c2.5,4.7,5.6,8.9,9.3,12.6
		c1.4,1.5,3,2.8,4.5,4.1c3.8-4.6,6.9-9.8,9.4-15.3C152.6,117,151.1,115.4,149.7,113.6z"/>
	<path class="st0" d="M232.7,91.8c0-29.8-24.2-54-54-54c-5.5,0-10.8,0.8-15.7,2.3c3.3,5,6.1,10.5,8.4,16.2c2.4-0.5,4.8-0.8,7.4-0.8
		c20,0,36.2,16.2,36.2,36.2S198.7,128,178.7,128c-3.4,0-6.7-0.5-9.8-1.3c-2.6,5.5-5.8,10.7-9.4,15.6c6,2.3,12.4,3.5,19.2,3.5
		C208.5,145.7,232.7,121.6,232.7,91.8L232.7,91.8z"/>
	<path class="st0" d="M159.3,74.6c0.9,4.6,1.4,9.3,1.4,14.1c0,6.5-0.9,12.9-2.5,18.9c-1,3.8-2.3,7.4-3.9,10.9
		c4.1,3.8,9.1,6.6,14.6,8.1c1.5-3.1,2.8-6.4,3.9-9.7c1.9,0.4,3.8,0.7,5.9,0.7c14.3,0,25.9-11.6,25.9-25.9S193,65.9,178.7,65.9
		c-1.4,0-2.8,0.1-4.1,0.3c-0.9-3.4-2-6.7-3.2-9.9c-5.7,1.2-10.8,3.7-15.2,7.1C157.5,67,158.6,70.7,159.3,74.6z M176.5,75.9
		c0.7-0.1,1.4-0.2,2.2-0.2c8.8,0,16,7.2,16,16s-7.2,16-16,16c-1.1,0-2.2-0.1-3.2-0.3c1.3-6,2-12.3,2-18.7
		C177.4,84.4,177.1,80.1,176.5,75.9z"/>
</g>
</svg>
